<?xml version="1.0" encoding="UTF-8"?>
<svg xmlns="http://www.w3.org/2000/svg" xmlns:xlink="http://www.w3.org/1999/xlink" width="42pt" height="42pt" viewBox="0 0 42 42" version="1.1">
<defs>
<linearGradient id="linear0" gradientUnits="userSpaceOnUse" x1="669.9531" y1="-189.1147" x2="11.5176" y2="595.4474" gradientTransform="matrix(0.0385424,0.0140314,0.0140314,-0.0385424,5.016609,24.049508)">
<stop offset="0" style="stop-color:rgb(12.54902%,14.509804%,29.803922%);stop-opacity:1;"/>
<stop offset="0.0571" style="stop-color:rgb(16.078431%,14.509804%,30.196078%);stop-opacity:1;"/>
<stop offset="0.1502" style="stop-color:rgb(25.490196%,13.72549%,30.980392%);stop-opacity:1;"/>
<stop offset="0.2679" style="stop-color:rgb(41.176471%,12.941176%,32.156863%);stop-opacity:1;"/>
<stop offset="0.4039" style="stop-color:rgb(62.745098%,12.156863%,34.117647%);stop-opacity:1;"/>
<stop offset="0.5333" style="stop-color:rgb(85.490196%,10.980392%,36.078431%);stop-opacity:1;"/>
<stop offset="0.5924" style="stop-color:rgb(86.27451%,14.509804%,35.294118%);stop-opacity:1;"/>
<stop offset="0.6889" style="stop-color:rgb(88.235294%,23.921569%,33.72549%);stop-opacity:1;"/>
<stop offset="0.8106" style="stop-color:rgb(91.764706%,39.607843%,30.588235%);stop-opacity:1;"/>
<stop offset="0.9515" style="stop-color:rgb(96.470588%,61.176471%,26.666667%);stop-opacity:1;"/>
<stop offset="1" style="stop-color:rgb(98.431373%,69.019608%,25.098039%);stop-opacity:1;"/>
</linearGradient>
<linearGradient id="linear1" gradientUnits="userSpaceOnUse" x1="289.8169" y1="702.0508" x2="865.8931" y2="125.9745" gradientTransform="matrix(0.0410156,0,0,-0.0410156,0.342062,41.017266)">
<stop offset="0" style="stop-color:rgb(0%,0%,0%);stop-opacity:0.85098;"/>
<stop offset="0.2068" style="stop-color:rgb(1.568627%,1.568627%,3.529412%);stop-opacity:0.67451;"/>
<stop offset="0.544" style="stop-color:rgb(5.490196%,6.27451%,12.941176%);stop-opacity:0.388235;"/>
<stop offset="0.9674" style="stop-color:rgb(12.156863%,13.72549%,28.627451%);stop-opacity:0.027451;"/>
<stop offset="1" style="stop-color:rgb(12.54902%,14.509804%,29.803922%);stop-opacity:0;"/>
</linearGradient>
</defs>
<g id="surface1">
<path style=" stroke:none;fill-rule:nonzero;fill:url(#linear0);" d="M 42 21 C 42 32.597656 32.597656 42 21 42 C 9.402344 42 0 32.597656 0 21 C 0 9.402344 9.402344 0 21 0 C 32.597656 0 42 9.402344 42 21 Z M 42 21 "/>
<path style=" stroke:none;fill-rule:nonzero;fill:url(#linear1);" d="M 23.15625 41.894531 L 11.484375 30.222656 L 11.4375 30.148438 L 11.039062 14.484375 C 11.039062 14.484375 12.269531 10.109375 16.757812 10.109375 C 21.25 10.109375 27.019531 10.109375 27.019531 10.109375 C 27.019531 10.109375 29 10.558594 29.371094 11.289062 L 30.042969 11.289062 L 41.894531 23.140625 C 41.894531 23.140625 41.652344 25.0625 41.398438 26.003906 C 41.398438 26.003906 40.886719 27.90625 40.472656 28.863281 C 40.472656 28.863281 39.914062 30.183594 39.566406 30.816406 C 39.566406 30.816406 39.273438 31.382812 38.960938 31.882812 C 38.960938 31.882812 38.457031 32.6875 38.242188 32.992188 C 38.242188 32.992188 37.734375 33.695312 37.558594 33.917969 C 37.558594 33.917969 37.121094 34.480469 36.804688 34.832031 C 36.804688 34.832031 36.351562 35.347656 36.078125 35.625 C 36.078125 35.625 35.808594 35.910156 35.5 36.195312 C 35.5 36.195312 34.546875 37.070312 34.128906 37.394531 C 34.128906 37.394531 32.550781 38.585938 31.8125 39.007812 C 31.8125 39.007812 30.726562 39.644531 30.042969 39.953125 C 30.042969 39.953125 28.679688 40.558594 28.183594 40.734375 C 28.183594 40.734375 27.660156 40.925781 27.230469 41.054688 C 27.230469 41.054688 26.566406 41.257812 26.171875 41.355469 C 26.171875 41.355469 25.753906 41.464844 25.390625 41.539062 C 25.390625 41.539062 24.921875 41.644531 24.457031 41.71875 C 24.457031 41.71875 23.71875 41.828125 23.5 41.855469 Z M 23.15625 41.894531 "/>
<path style="fill:none;stroke-width:45;stroke-linecap:butt;stroke-linejoin:miter;stroke:rgb(100%,100%,100%);stroke-opacity:1;stroke-miterlimit:10;" d="M 255.333333 612.47619 C 255.333333 703.619048 329.238095 777.52381 420.380952 777.52381 L 603.619048 777.52381 C 694.761905 777.52381 768.666667 703.619048 768.666667 612.47619 L 768.666667 411.52381 C 768.666667 320.380952 694.761905 246.47619 603.619048 246.47619 L 420.380952 246.47619 C 329.238095 246.47619 255.333333 320.380952 255.333333 411.52381 Z M 255.333333 612.47619 " transform="matrix(0.0410156,0,0,0.0410156,0,0)"/>
<path style="fill:none;stroke-width:45;stroke-linecap:butt;stroke-linejoin:miter;stroke:rgb(100%,100%,100%);stroke-opacity:1;stroke-miterlimit:10;" d="M 633.428571 512 C 633.428571 579.047619 579.047619 633.428571 512 633.428571 C 444.952381 633.428571 390.571429 579.047619 390.571429 512 C 390.571429 444.952381 444.952381 390.571429 512 390.571429 C 579.047619 390.571429 633.428571 444.952381 633.428571 512 Z M 633.428571 512 " transform="matrix(0.0410156,0,0,0.0410156,0,0)"/>
<path style=" stroke:none;fill-rule:nonzero;fill:rgb(100%,100%,100%);fill-opacity:1;" d="M 28.378906 14.953125 C 28.378906 15.703125 27.769531 16.3125 27.019531 16.3125 C 26.269531 16.3125 25.660156 15.703125 25.660156 14.953125 C 25.660156 14.203125 26.269531 13.59375 27.019531 13.59375 C 27.769531 13.59375 28.378906 14.203125 28.378906 14.953125 Z M 28.378906 14.953125 "/>
</g>
</svg>
