<?xml version="1.0" encoding="UTF-8"?>
<svg xmlns="http://www.w3.org/2000/svg" xmlns:xlink="http://www.w3.org/1999/xlink" width="42pt" height="42pt" viewBox="0 0 42 42" version="1.1">
<g id="surface1">
<path style=" stroke:none;fill-rule:nonzero;fill:rgb(29.411765%,37.254902%,51.372549%);fill-opacity:1;" d="M 42 21 C 42 32.597656 32.597656 42 21 42 C 9.402344 42 0 32.597656 0 21 C 0 9.402344 9.402344 0 21 0 C 32.597656 0 42 9.402344 42 21 Z M 42 21 "/>
<path style=" stroke:none;fill-rule:nonzero;fill:rgb(100%,100%,100%);fill-opacity:1;" d="M 30.84375 21 C 30.84375 15.554688 26.445312 11.15625 21 11.15625 C 15.554688 11.15625 11.15625 15.554688 11.15625 21 C 11.15625 26.445312 15.554688 30.84375 21 30.84375 C 23.296875 30.84375 25.429688 30.054688 27.101562 28.710938 C 27.167969 28.710938 27.234375 28.679688 27.300781 28.679688 C 27.300781 28.644531 27.265625 28.613281 27.265625 28.578125 C 29.464844 26.773438 30.84375 24.050781 30.84375 21 Z M 29.5 20.34375 L 24.28125 20.34375 C 24.25 19.164062 24.148438 18.015625 24.019531 16.996094 C 25.101562 16.4375 25.988281 15.585938 26.609375 14.570312 C 28.25 15.980469 29.335938 18.046875 29.5 20.34375 Z M 21 29.53125 C 20.34375 29.53125 19.71875 28.085938 19.390625 25.855469 C 19.917969 25.691406 20.441406 25.59375 21 25.59375 C 21.558594 25.59375 22.117188 25.691406 22.609375 25.855469 C 22.28125 28.085938 21.65625 29.53125 21 29.53125 Z M 23.757812 26.382812 C 24.511719 26.839844 25.101562 27.464844 25.5625 28.21875 C 24.707031 28.742188 23.757812 29.136719 22.738281 29.367188 C 23.132812 28.578125 23.492188 27.5625 23.757812 26.382812 Z M 19.261719 29.367188 C 18.242188 29.171875 17.292969 28.777344 16.4375 28.21875 C 16.867188 27.464844 17.488281 26.839844 18.242188 26.382812 C 18.507812 27.5625 18.867188 28.578125 19.261719 29.367188 Z M 21.132812 24.28125 C 20.476562 24.28125 19.820312 24.378906 19.226562 24.578125 C 19.128906 23.691406 19.0625 22.707031 19.0625 21.65625 L 23 21.65625 C 22.96875 22.671875 22.9375 23.625 22.835938 24.511719 C 22.246094 24.347656 21.722656 24.28125 21.132812 24.28125 Z M 19.03125 20.34375 C 19.0625 19.328125 19.097656 18.34375 19.195312 17.457031 C 19.753906 17.621094 20.375 17.71875 21 17.71875 C 21.625 17.71875 22.214844 17.621094 22.804688 17.457031 C 22.902344 18.34375 22.96875 19.328125 22.96875 20.34375 Z M 21 12.46875 C 21.65625 12.46875 22.246094 13.914062 22.609375 16.109375 C 22.050781 16.308594 21.492188 16.40625 20.867188 16.40625 C 20.34375 16.40625 19.851562 16.339844 19.359375 16.175781 C 19.71875 13.945312 20.3125 12.46875 21 12.46875 Z M 18.242188 15.683594 C 17.488281 15.226562 16.832031 14.601562 16.375 13.8125 C 17.257812 13.257812 18.210938 12.828125 19.261719 12.632812 C 18.867188 13.421875 18.507812 14.46875 18.242188 15.683594 Z M 22.738281 12.632812 C 23.722656 12.828125 24.609375 13.191406 25.429688 13.714844 C 25.003906 14.46875 24.414062 15.09375 23.722656 15.554688 C 23.460938 14.371094 23.132812 13.386719 22.738281 12.632812 Z M 15.390625 14.570312 C 16.011719 15.585938 16.898438 16.4375 17.980469 16.996094 C 17.816406 18.046875 17.71875 19.164062 17.71875 20.34375 L 12.5 20.34375 C 12.664062 18.046875 13.75 15.980469 15.390625 14.570312 Z M 12.5 21.65625 L 17.71875 21.65625 C 17.75 22.871094 17.851562 24.019531 18.015625 25.070312 C 16.964844 25.625 16.109375 26.480469 15.488281 27.496094 C 13.8125 26.085938 12.664062 23.984375 12.5 21.65625 Z M 24.019531 24.9375 C 24.183594 23.921875 24.25 22.804688 24.28125 21.65625 L 29.5 21.65625 C 29.335938 23.921875 28.285156 25.921875 26.675781 27.367188 C 26.019531 26.316406 25.101562 25.496094 24.019531 24.9375 Z M 24.019531 24.9375 "/>
</g>
</svg>
