<?xml version="1.0" encoding="UTF-8"?>
<svg xmlns="http://www.w3.org/2000/svg" xmlns:xlink="http://www.w3.org/1999/xlink" width="42pt" height="42pt" viewBox="0 0 42 42" version="1.1">
<g id="surface1">
<path style=" stroke:none;fill-rule:nonzero;fill:rgb(32.54902%,45.882353%,60%);fill-opacity:1;" d="M 21 0 C 32.597656 0 42 9.402344 42 21 C 42 32.597656 32.597656 42 21 42 C 9.402344 42 0 32.597656 0 21 C 0 9.402344 9.402344 0 21 0 Z M 21 0 "/>
<path style=" stroke:none;fill-rule:nonzero;fill:rgb(100%,100%,100%);fill-opacity:1;" d="M 21.949219 13.417969 C 20.515625 13.425781 19.605469 13.425781 18.320312 13.425781 C 17.242188 13.425781 16.636719 13.859375 16.621094 14.121094 C 16.601562 14.359375 17.152344 14.550781 17.484375 14.742188 C 17.808594 14.941406 18.097656 15.578125 18.097656 16.003906 L 18.097656 19.742188 C 18.097656 20.097656 18.015625 20.34375 17.730469 20.574219 C 17.59375 20.683594 17.429688 20.714844 17.253906 20.714844 C 17.113281 20.710938 16.921875 20.6875 16.789062 20.511719 C 15.371094 18.679688 15.367188 18.453125 13.382812 14.757812 C 13.285156 14.578125 13.191406 14.386719 12.992188 14.246094 C 12.796875 14.101562 12.503906 14.007812 12.035156 14.007812 C 10.441406 14.007812 9.457031 14.03125 8.40625 14.03125 C 7.414062 14.03125 7.507812 14.640625 7.640625 14.917969 C 8.832031 17.398438 10.039062 19.769531 11.429688 22.175781 C 13.058594 24.992188 14.542969 26.683594 17.046875 27.898438 C 17.628906 28.179688 18.675781 28.472656 19.886719 28.472656 L 22.460938 28.472656 C 22.789062 28.472656 23.339844 28.210938 23.339844 27.863281 L 23.339844 25.933594 C 23.339844 25.378906 23.890625 25.179688 24.191406 25.042969 C 24.542969 24.882812 24.914062 25.136719 25.101562 25.335938 C 26.539062 26.871094 26.375 26.707031 27.6875 28.082031 C 27.984375 28.394531 28.207031 28.558594 28.765625 28.558594 C 32.546875 28.558594 32.546875 28.5625 33.453125 28.558594 C 33.699219 28.554688 34.066406 28.183594 34.148438 28.039062 C 34.257812 27.847656 34.5 27.164062 34.109375 26.722656 C 32.78125 25.21875 31.425781 23.84375 30.128906 22.480469 C 30.03125 22.375 29.957031 22.234375 29.953125 22.089844 C 29.949219 21.933594 30.039062 21.78125 30.128906 21.652344 C 31.585938 19.632812 32.785156 17.921875 34.09375 15.800781 C 34.519531 15.109375 34.464844 14.621094 34.386719 14.449219 C 34.296875 14.253906 34.015625 13.984375 33.695312 13.984375 C 31.949219 13.976562 31.195312 13.949219 29.332031 13.953125 C 28.777344 13.953125 28.285156 13.910156 27.980469 14.582031 C 27.160156 16.375 25.824219 19.113281 24.664062 20.253906 C 24.449219 20.464844 24.164062 20.621094 23.914062 20.621094 C 23.664062 20.621094 23.398438 20.453125 23.363281 20.046875 C 23.335938 18.09375 23.359375 16.425781 23.347656 14.511719 C 23.34375 13.925781 23.097656 13.777344 22.910156 13.644531 C 22.65625 13.46875 22.257812 13.417969 21.949219 13.417969 Z M 21.949219 13.417969 "/>
</g>
</svg>
